<svg version="1.1" id="Layer_1" xmlns="http://www.w3.org/2000/svg" xmlns:xlink="http://www.w3.org/1999/xlink" x="0px" y="0px"
	 width="100%" viewBox="0 0 2000 2000" enable-background="new 0 0 2000 2000" xml:space="preserve">
<path fill="#7B00AD" opacity="1.000000" stroke="none" 
	d="
M875.000000,2001.000000 
	C583.333313,2001.000000 292.166656,2001.000000 1.000000,2001.000000 
	C1.000000,1334.333374 1.000000,667.666687 1.000000,1.000000 
	C667.666687,1.000000 1334.333374,1.000000 2001.000000,1.000000 
	C2001.000000,667.666687 2001.000000,1334.333374 2001.000000,2001.000000 
	C1625.833374,2001.000000 1250.666626,2001.000000 875.000000,2001.000000 
M1602.685913,800.163757 
	C1629.517700,788.199097 1656.349365,776.234375 1683.653931,764.058777 
	C1666.093384,726.388062 1648.649048,688.966675 1631.049438,651.212341 
	C1616.657593,657.655884 1602.850220,663.784973 1589.085938,670.009094 
	C1516.906250,702.648193 1445.848511,737.522278 1377.240112,777.203491 
	C1350.427734,792.710938 1324.118042,809.014038 1300.126465,828.807678 
	C1291.243774,836.136108 1285.268921,845.165466 1283.146973,856.249390 
	C1280.585693,869.628723 1279.537720,883.298645 1276.950562,896.671814 
	C1273.548584,914.256958 1280.574219,927.208862 1293.081421,938.569275 
	C1312.689941,956.379761 1331.928589,974.597107 1351.485962,992.464539 
	C1377.563232,1016.288269 1404.149048,1039.567139 1429.848267,1063.788940 
	C1449.843994,1082.635254 1465.273071,1104.792725 1473.244263,1131.577637 
	C1479.569336,1152.832153 1471.349243,1170.458130 1450.847534,1179.080444 
	C1438.551636,1184.251709 1425.617920,1186.785522 1412.412842,1186.873047 
	C1366.583618,1187.176758 1320.751587,1187.138550 1274.920898,1187.062744 
	C1263.437378,1187.043823 1251.933838,1186.716064 1240.477661,1185.955811 
	C1227.437988,1185.090210 1214.737305,1182.134033 1202.979492,1176.353638 
	C1186.399170,1168.202515 1177.872314,1153.675171 1173.009155,1136.543335 
	C1166.260742,1112.770264 1165.040527,1088.307373 1164.135620,1063.832642 
	C1162.251343,1012.874451 1160.561157,961.909241 1158.734131,910.948853 
	C1155.802490,829.179565 1152.829712,747.411682 1149.860229,665.643738 
	C1149.492920,655.529419 1149.038940,645.418274 1148.617310,635.113159 
	C1104.670898,635.113159 1061.104492,635.113159 1017.148010,635.113159 
	C1017.148010,636.351379 1017.119385,637.312134 1017.151978,638.270813 
	C1018.550964,679.408569 1019.949585,720.546387 1021.360779,761.683777 
	C1023.234619,816.310974 1025.121582,870.937866 1026.997925,925.564941 
	C1028.536865,970.366028 1030.144775,1015.164978 1031.575439,1059.969482 
	C1032.473877,1088.106934 1033.896851,1116.260376 1030.079590,1144.328857 
	C1027.199219,1165.508057 1016.518982,1177.551636 995.711304,1182.567505 
	C978.244385,1186.777954 960.462463,1187.268311 942.598389,1187.119873 
	C912.628113,1186.870605 889.152161,1174.411011 871.302063,1150.482300 
	C859.684998,1134.909180 850.339355,1118.058105 842.302429,1100.490601 
	C827.986389,1069.197632 814.339111,1037.597656 799.910339,1006.357849 
	C790.687073,986.388550 780.114319,967.152161 765.062378,950.724854 
	C748.362488,932.498962 728.007751,922.480652 703.140747,921.700562 
	C682.622253,921.056946 662.646851,924.340088 642.943298,929.578613 
	C584.475952,945.123230 532.280334,972.915588 485.243469,1010.704102 
	C431.837891,1053.609009 391.775421,1106.473999 365.914978,1170.045288 
	C342.374176,1227.914429 336.629822,1288.284302 340.436249,1349.956543 
	C343.445770,1398.716675 350.692688,1446.969238 359.375977,1494.993652 
	C369.740967,1552.318726 383.182434,1608.957275 398.475586,1665.160156 
	C399.459412,1668.775635 400.501129,1672.375366 401.585541,1676.229736 
	C443.738159,1664.764648 485.389435,1653.436035 527.246704,1642.051270 
	C526.608032,1639.543457 526.153625,1637.626465 525.631470,1635.728149 
	C500.576569,1544.646606 479.657227,1452.736328 470.635315,1358.483887 
	C466.595093,1316.275757 469.818054,1274.646240 482.031067,1233.907349 
	C484.620514,1225.269775 487.859802,1216.826904 491.033966,1207.614380 
	C493.483215,1210.667114 495.247498,1212.870483 497.016388,1215.069946 
	C512.086853,1233.808716 528.397034,1251.355957 546.659180,1267.054565 
	C593.011169,1306.899536 645.760437,1329.806519 707.824402,1329.086548 
	C747.861389,1328.621948 778.389709,1311.418213 800.680847,1278.668823 
	C802.813232,1275.536133 804.853699,1272.340698 807.037231,1269.021729 
	C808.127808,1269.901855 808.900940,1270.483643 809.627747,1271.118408 
	C838.681580,1296.494019 872.166809,1312.332031 910.705811,1315.614502 
	C950.246582,1318.982422 989.572144,1316.589844 1028.317261,1307.219116 
	C1055.507690,1300.643066 1078.704590,1287.549561 1096.717041,1265.866577 
	C1100.495361,1261.318115 1104.074341,1256.604004 1107.735962,1251.977783 
	C1108.279297,1252.354126 1108.636597,1252.477783 1108.788452,1252.726685 
	C1109.741211,1254.288818 1110.663330,1255.870361 1111.568115,1257.461060 
	C1124.001831,1279.323730 1141.866577,1294.746582 1165.699097,1303.071899 
	C1192.214966,1312.334229 1219.701538,1316.288818 1247.611938,1316.713257 
	C1281.767944,1317.232788 1315.942383,1317.187988 1350.099854,1316.723389 
	C1376.401611,1316.365967 1402.738770,1315.697021 1428.971436,1313.883301 
	C1465.300659,1311.371826 1500.150879,1302.304565 1533.234375,1286.852539 
	C1559.437866,1274.613647 1581.591553,1257.275024 1597.645630,1233.115601 
	C1618.141113,1202.272461 1621.555786,1168.402222 1614.653442,1132.530151 
	C1607.872925,1097.290894 1592.456543,1066.121338 1572.346558,1036.990234 
	C1543.268799,994.868835 1507.077637,959.231262 1469.165039,925.242615 
	C1455.652344,913.128418 1441.790527,901.403809 1427.682007,889.148743 
	C1484.190430,856.131165 1542.714355,827.561157 1602.685913,800.163757 
M1190.194336,1361.777832 
	C1127.250244,1380.426880 1064.316772,1399.111938 1001.332092,1417.623291 
	C998.036377,1418.591919 997.796692,1420.287964 997.805298,1422.990479 
	C997.864380,1441.648071 997.829163,1460.306152 997.842773,1478.963989 
	C997.843750,1480.267578 997.993713,1481.571167 998.109314,1483.437744 
	C1070.925049,1462.499512 1143.390991,1441.661865 1215.710205,1420.866455 
	C1215.710205,1398.468628 1215.710205,1376.454956 1215.710205,1354.135498 
	C1207.177856,1356.671021 1199.062744,1359.082520 1190.194336,1361.777832 
M1457.670044,551.075073 
	C1471.086060,547.216553 1484.468872,543.235291 1497.941406,539.585510 
	C1501.325439,538.668823 1502.288086,537.203735 1502.255249,533.757690 
	C1502.073730,514.604370 1502.176025,495.448425 1502.153687,476.293396 
	C1502.151978,474.918518 1501.931274,473.543915 1501.785767,471.859924 
	C1428.851074,493.485596 1356.429932,514.958984 1284.172852,536.383789 
	C1284.172852,558.233215 1284.172852,579.489502 1284.172852,601.187744 
	C1341.973755,584.483887 1399.430298,567.879517 1457.670044,551.075073 
z"/>
<path fill="#FFFFFF" opacity="1.000000" stroke="none" 
	d="
M1602.352051,800.339844 
	C1542.714355,827.561157 1484.190430,856.131165 1427.682007,889.148743 
	C1441.790527,901.403809 1455.652344,913.128418 1469.165039,925.242615 
	C1507.077637,959.231262 1543.268799,994.868835 1572.346558,1036.990234 
	C1592.456543,1066.121338 1607.872925,1097.290894 1614.653442,1132.530151 
	C1621.555786,1168.402222 1618.141113,1202.272461 1597.645630,1233.115601 
	C1581.591553,1257.275024 1559.437866,1274.613647 1533.234375,1286.852539 
	C1500.150879,1302.304565 1465.300659,1311.371826 1428.971436,1313.883301 
	C1402.738770,1315.697021 1376.401611,1316.365967 1350.099854,1316.723389 
	C1315.942383,1317.187988 1281.767944,1317.232788 1247.611938,1316.713257 
	C1219.701538,1316.288818 1192.214966,1312.334229 1165.699097,1303.071899 
	C1141.866577,1294.746582 1124.001831,1279.323730 1111.568115,1257.461060 
	C1110.663330,1255.870361 1109.741211,1254.288818 1108.788452,1252.726685 
	C1108.636597,1252.477783 1108.279297,1252.354126 1107.735962,1251.977783 
	C1104.074341,1256.604004 1100.495361,1261.318115 1096.717041,1265.866577 
	C1078.704590,1287.549561 1055.507690,1300.643066 1028.317261,1307.219116 
	C989.572144,1316.589844 950.246582,1318.982422 910.705811,1315.614502 
	C872.166809,1312.332031 838.681580,1296.494019 809.627747,1271.118408 
	C808.900940,1270.483643 808.127808,1269.901855 807.037231,1269.021729 
	C804.853699,1272.340698 802.813232,1275.536133 800.680847,1278.668823 
	C778.389709,1311.418213 747.861389,1328.621948 707.824402,1329.086548 
	C645.760437,1329.806519 593.011169,1306.899536 546.659180,1267.054565 
	C528.397034,1251.355957 512.086853,1233.808716 497.016388,1215.069946 
	C495.247498,1212.870483 493.483215,1210.667114 491.033966,1207.614380 
	C487.859802,1216.826904 484.620514,1225.269775 482.031067,1233.907349 
	C469.818054,1274.646240 466.595093,1316.275757 470.635315,1358.483887 
	C479.657227,1452.736328 500.576569,1544.646606 525.631470,1635.728149 
	C526.153625,1637.626465 526.608032,1639.543457 527.246704,1642.051270 
	C485.389435,1653.436035 443.738159,1664.764648 401.585541,1676.229736 
	C400.501129,1672.375366 399.459412,1668.775635 398.475586,1665.160156 
	C383.182434,1608.957275 369.740967,1552.318726 359.375977,1494.993652 
	C350.692688,1446.969238 343.445770,1398.716675 340.436249,1349.956543 
	C336.629822,1288.284302 342.374176,1227.914429 365.914978,1170.045288 
	C391.775421,1106.473999 431.837891,1053.609009 485.243469,1010.704102 
	C532.280334,972.915588 584.475952,945.123230 642.943298,929.578613 
	C662.646851,924.340088 682.622253,921.056946 703.140747,921.700562 
	C728.007751,922.480652 748.362488,932.498962 765.062378,950.724854 
	C780.114319,967.152161 790.687073,986.388550 799.910339,1006.357849 
	C814.339111,1037.597656 827.986389,1069.197632 842.302429,1100.490601 
	C850.339355,1118.058105 859.684998,1134.909180 871.302063,1150.482300 
	C889.152161,1174.411011 912.628113,1186.870605 942.598389,1187.119873 
	C960.462463,1187.268311 978.244385,1186.777954 995.711304,1182.567505 
	C1016.518982,1177.551636 1027.199219,1165.508057 1030.079590,1144.328857 
	C1033.896851,1116.260376 1032.473877,1088.106934 1031.575439,1059.969482 
	C1030.144775,1015.164978 1028.536865,970.366028 1026.997925,925.564941 
	C1025.121582,870.937866 1023.234619,816.310974 1021.360779,761.683777 
	C1019.949585,720.546387 1018.550964,679.408569 1017.151978,638.270813 
	C1017.119385,637.312134 1017.148010,636.351379 1017.148010,635.113159 
	C1061.104492,635.113159 1104.670898,635.113159 1148.617310,635.113159 
	C1149.038940,645.418274 1149.492920,655.529419 1149.860229,665.643738 
	C1152.829712,747.411682 1155.802490,829.179565 1158.734131,910.948853 
	C1160.561157,961.909241 1162.251343,1012.874451 1164.135620,1063.832642 
	C1165.040527,1088.307373 1166.260742,1112.770264 1173.009155,1136.543335 
	C1177.872314,1153.675171 1186.399170,1168.202515 1202.979492,1176.353638 
	C1214.737305,1182.134033 1227.437988,1185.090210 1240.477661,1185.955811 
	C1251.933838,1186.716064 1263.437378,1187.043823 1274.920898,1187.062744 
	C1320.751587,1187.138550 1366.583618,1187.176758 1412.412842,1186.873047 
	C1425.617920,1186.785522 1438.551636,1184.251709 1450.847534,1179.080444 
	C1471.349243,1170.458130 1479.569336,1152.832153 1473.244263,1131.577637 
	C1465.273071,1104.792725 1449.843994,1082.635254 1429.848267,1063.788940 
	C1404.149048,1039.567139 1377.563232,1016.288269 1351.485962,992.464539 
	C1331.928589,974.597107 1312.689941,956.379761 1293.081421,938.569275 
	C1280.574219,927.208862 1273.548584,914.256958 1276.950562,896.671814 
	C1279.537720,883.298645 1280.585693,869.628723 1283.146973,856.249390 
	C1285.268921,845.165466 1291.243774,836.136108 1300.126465,828.807678 
	C1324.118042,809.014038 1350.427734,792.710938 1377.240112,777.203491 
	C1445.848511,737.522278 1516.906250,702.648193 1589.085938,670.009094 
	C1602.850220,663.784973 1616.657593,657.655884 1631.049438,651.212341 
	C1648.649048,688.966675 1666.093384,726.388062 1683.653931,764.058777 
	C1656.349365,776.234375 1629.517700,788.199097 1602.352051,800.339844 
M648.957214,1185.595459 
	C668.504822,1195.016357 688.946045,1200.003540 710.779358,1197.969238 
	C713.921265,1197.676514 717.094910,1197.369263 720.159729,1196.661255 
	C741.642578,1191.698730 750.057556,1176.218140 741.457764,1155.115723 
	C732.186951,1132.366577 721.833618,1110.049316 711.565063,1087.721802 
	C708.598328,1081.270996 704.682739,1075.155396 700.513855,1069.383179 
	C694.567932,1061.150269 687.440247,1053.549927 676.481995,1053.392334 
	C669.483276,1053.291748 662.144348,1054.570557 655.489075,1056.809570 
	C629.655396,1065.500610 607.017273,1080.064697 585.724915,1096.762817 
	C579.929993,1101.307251 574.867249,1106.785156 569.498657,1111.806396 
	C590.379395,1143.187988 615.369080,1168.478271 648.957214,1185.595459 
z"/>
<path fill="#FEFEFF" opacity="1.000000" stroke="none" 
	d="
M1190.571045,1361.635986 
	C1199.062744,1359.082520 1207.177856,1356.671021 1215.710205,1354.135498 
	C1215.710205,1376.454956 1215.710205,1398.468628 1215.710205,1420.866455 
	C1143.390991,1441.661865 1070.925049,1462.499512 998.109314,1483.437744 
	C997.993713,1481.571167 997.843750,1480.267578 997.842773,1478.963989 
	C997.829163,1460.306152 997.864380,1441.648071 997.805298,1422.990479 
	C997.796692,1420.287964 998.036377,1418.591919 1001.332092,1417.623291 
	C1064.316772,1399.111938 1127.250244,1380.426880 1190.571045,1361.635986 
z"/>
<path fill="#FEFEFF" opacity="1.000000" stroke="none" 
	d="
M1457.278442,551.175171 
	C1399.430298,567.879517 1341.973755,584.483887 1284.172852,601.187744 
	C1284.172852,579.489502 1284.172852,558.233215 1284.172852,536.383789 
	C1356.429932,514.958984 1428.851074,493.485596 1501.785767,471.859924 
	C1501.931274,473.543915 1502.151978,474.918518 1502.153687,476.293396 
	C1502.176025,495.448425 1502.073730,514.604370 1502.255249,533.757690 
	C1502.288086,537.203735 1501.325439,538.668823 1497.941406,539.585510 
	C1484.468872,543.235291 1471.086060,547.216553 1457.278442,551.175171 
z"/>
<path fill="#7B01AD" opacity="1.000000" stroke="none" 
	d="
M648.633179,1185.406494 
	C615.369080,1168.478271 590.379395,1143.187988 569.498657,1111.806396 
	C574.867249,1106.785156 579.929993,1101.307251 585.724915,1096.762817 
	C607.017273,1080.064697 629.655396,1065.500610 655.489075,1056.809570 
	C662.144348,1054.570557 669.483276,1053.291748 676.481995,1053.392334 
	C687.440247,1053.549927 694.567932,1061.150269 700.513855,1069.383179 
	C704.682739,1075.155396 708.598328,1081.270996 711.565063,1087.721802 
	C721.833618,1110.049316 732.186951,1132.366577 741.457764,1155.115723 
	C750.057556,1176.218140 741.642578,1191.698730 720.159729,1196.661255 
	C717.094910,1197.369263 713.921265,1197.676514 710.779358,1197.969238 
	C688.946045,1200.003540 668.504822,1195.016357 648.633179,1185.406494 
z"/>
</svg>